<svg width="1440" height="133" viewBox="0 0 1440 132" fill="none" xmlns="http://www.w3.org/2000/svg">
    <path d="M0.5 132.5V112.647C0.822433 112.717 1.27198 112.813 1.84783 112.933C3.14765 113.202 5.09097 113.591 7.66829 114.067C12.8229 115.021 20.5135 116.329 30.6642 117.745C50.9655 120.579 81.1071 123.848 120.481 125.596C199.23 129.091 314.908 126.5 462.657 102.16C540.977 89.258 611.05 77.067 675.216 65.9038C853.111 34.9547 985.599 11.9053 1122.53 3.49905C1215.68 -2.21921 1295.03 1.90448 1351.08 7.45742C1379.11 10.2339 1401.32 13.3675 1416.52 15.8068C1424.12 17.0264 1429.96 18.0723 1433.91 18.8132C1435.88 19.1836 1437.38 19.4778 1438.38 19.6792C1438.87 19.7778 1439.25 19.8541 1439.5 19.9063V132.5H0.5Z" fill="white" stroke="white"/>
</svg>
