<svg version="1.1" viewBox="0.0 0.0 960.0 720.0" fill="none" stroke="none" stroke-linecap="square" stroke-miterlimit="10" xmlns:xlink="http://www.w3.org/1999/xlink" xmlns="http://www.w3.org/2000/svg"><clipPath id="p.0"><path d="m0 0l960.0 0l0 720.0l-960.0 0l0 -720.0z" clip-rule="nonzero"/></clipPath><g clip-path="url(#p.0)"><path fill="#000000" fill-opacity="0.0" d="m0 0l960.0 0l0 720.0l-960.0 0z" fill-rule="evenodd"/><path fill="#000000" fill-opacity="0.0" d="m349.08694 297.84122l261.82675 0l0 102.99213l-261.82675 0z" fill-rule="evenodd"/><path fill="#000000" d="m363.22076 383.99725q-1.15625 0 -2.03125 -0.8125q-0.859375 -0.8125 -0.859375 -2.0625l0 -69.21875q0 -1.25 0.859375 -2.0625q0.875 -0.8125 2.03125 -0.8125q1.25 0 2.0625 0.8125q0.8125 0.8125 0.8125 2.0625l0 66.90625l39.453125 0q1.34375 0 2.109375 0.71875q0.78125 0.71875 0.78125 1.875q0 1.15625 -0.78125 1.875q-0.765625 0.71875 -2.109375 0.71875l-42.328125 0zm80.25223 0.578125q-7.6875 0 -13.78125 -3.5q-6.09375 -3.515625 -9.59375 -9.609375q-3.5 -6.09375 -3.5 -13.671875q0 -7.6875 3.5 -13.78125q3.5 -6.09375 9.59375 -9.59375q6.09375 -3.515625 13.78125 -3.515625q7.671875 0 13.71875 3.515625q6.0625 3.5 9.5625 9.59375q3.5 6.09375 3.5 13.78125q0 7.578125 -3.5 13.671875q-3.5 6.09375 -9.5625 9.609375q-6.046875 3.5 -13.71875 3.5zm0 -5.375q6.046875 0 10.796875 -2.828125q4.75 -2.84375 7.484375 -7.6875q2.734375 -4.84375 2.734375 -10.984375q0 -6.0625 -2.734375 -10.90625q-2.734375 -4.84375 -7.484375 -7.671875q-4.75 -2.84375 -10.796875 -2.84375q-5.953125 0 -10.75 2.84375q-4.796875 2.828125 -7.59375 7.671875q-2.78125 4.84375 -2.78125 11.0q0 6.046875 2.78125 10.890625q2.796875 4.84375 7.59375 7.6875q4.796875 2.828125 10.75 2.828125zm65.18396 5.375q-7.6875 0 -13.78125 -3.5q-6.09375 -3.515625 -9.59375 -9.609375q-3.5 -6.09375 -3.5 -13.671875q0 -7.6875 3.5 -13.78125q3.5 -6.09375 9.59375 -9.59375q6.09375 -3.515625 13.78125 -3.515625q7.6719055 0 13.7187805 3.515625q6.0625 3.5 9.5625 9.59375q3.5 6.09375 3.5 13.78125q0 7.578125 -3.5 13.671875q-3.5 6.09375 -9.5625 9.609375q-6.046875 3.5 -13.7187805 3.5zm0 -5.375q6.0469055 0 10.7969055 -2.828125q4.75 -2.84375 7.484375 -7.6875q2.734375 -4.84375 2.734375 -10.984375q0 -6.0625 -2.734375 -10.90625q-2.734375 -4.84375 -7.484375 -7.671875q-4.75 -2.84375 -10.7969055 -2.84375q-5.953125 0 -10.75 2.84375q-4.796875 2.828125 -7.59375 7.671875q-2.78125 4.84375 -2.78125 11.0q0 6.046875 2.78125 10.890625q2.796875 4.84375 7.59375 7.6875q4.796875 2.828125 10.75 2.828125zm44.05899 27.265625q-1.25 0 -2.0625 -0.828125q-0.8125 -0.8125 -0.8125 -2.0625l0 -46.359375q0.1875 -7.59375 3.6875 -13.484375q3.515625 -5.90625 9.5625 -9.359375q6.046875 -3.46875 13.53125 -3.46875q7.6875 0 13.78125 3.515625q6.09375 3.5 9.59375 9.59375q3.5 6.09375 3.5 13.78125q0 7.578125 -3.5 13.671875q-3.5 6.09375 -9.59375 9.609375q-6.09375 3.5 -13.78125 3.5q-6.90625 0 -12.4375 -2.96875q-5.515625 -2.984375 -8.578125 -7.984375l0 29.953125q0 1.25 -0.78125 2.0625q-0.765625 0.828125 -2.109375 0.828125zm23.90625 -27.265625q6.046875 0 10.796875 -2.828125q4.75 -2.84375 7.53125 -7.6875q2.796875 -4.84375 2.796875 -10.890625q0 -6.15625 -2.796875 -11.0q-2.78125 -4.84375 -7.53125 -7.671875q-4.75 -2.84375 -10.796875 -2.84375q-5.953125 0 -10.75 2.84375q-4.796875 2.828125 -7.53125 7.671875q-2.734375 4.84375 -2.734375 11.0q0 6.046875 2.734375 10.890625q2.734375 4.84375 7.53125 7.6875q4.796875 2.828125 10.75 2.828125z" fill-rule="nonzero"/><path fill="#000000" fill-opacity="0.0" d="m349.0863 376.17453l222.99213 0l0 45.984253l-222.99213 0z" fill-rule="evenodd"/><path fill="#000000" d="m365.2113 390.68317q-0.859375 0.046875 -1.265625 0.203125q-0.390625 0.140625 -0.53125 0.546875q-0.140625 0.40625 -0.140625 1.3125l0 11.90625q0 0.921875 0.140625 1.328125q0.140625 0.40625 0.53125 0.546875q0.40625 0.140625 1.265625 0.1875l0 0.484375q-1.09375 -0.078125 -3.046875 -0.078125q-2.0625 0 -3.0625 0.078125l0 -0.484375q0.859375 -0.046875 1.25 -0.1875q0.390625 -0.140625 0.53125 -0.546875q0.15625 -0.40625 0.15625 -1.328125l0 -11.90625q0 -0.90625 -0.15625 -1.3125q-0.140625 -0.40625 -0.53125 -0.546875q-0.390625 -0.15625 -1.25 -0.203125l0 -0.46875q1.0 0.0625 3.0625 0.0625q1.921875 0 3.046875 -0.0625l0 0.46875zm23.065063 0q-0.84375 0.046875 -1.25 0.25q-0.40625 0.203125 -0.546875 0.671875q-0.140625 0.46875 -0.140625 1.390625l0 14.328125l-0.5625 0l-10.078125 -15.578125l0 12.671875q0 0.9375 0.15625 1.390625q0.15625 0.453125 0.609375 0.65625q0.46875 0.203125 1.421875 0.25l0 0.484375q-0.859375 -0.078125 -2.453125 -0.078125q-1.4375 0 -2.21875 0.078125l0 -0.484375q0.828125 -0.046875 1.234375 -0.25q0.40625 -0.203125 0.546875 -0.671875q0.15625 -0.46875 0.15625 -1.375l0 -11.671875q0 -0.90625 -0.15625 -1.3125q-0.140625 -0.40625 -0.53125 -0.546875q-0.390625 -0.15625 -1.25 -0.203125l0 -0.46875q0.78125 0.0625 2.21875 0.0625q1.078125 0 1.875 -0.0625l8.46875 13.046875l0 -10.265625q0 -0.9375 -0.15625 -1.390625q-0.15625 -0.46875 -0.609375 -0.671875q-0.453125 -0.203125 -1.40625 -0.25l0 -0.46875q0.859375 0.0625 2.4375 0.0625q1.4375 0 2.234375 -0.0625l0 0.46875zm19.510193 -0.40625q1.078125 0 1.796875 -0.0625l0 0.46875q-1.1875 0.296875 -1.890625 2.09375l-5.640625 14.546875l-0.1875 0l-0.1875 0l-5.859375 -15.09375q-0.578125 -1.5 -1.65625 -1.546875l0 -0.46875q0.953125 0.0625 2.5625 0.0625q2.0625 0 3.078125 -0.0625l0 0.46875q-0.921875 0.046875 -1.3125 0.234375q-0.390625 0.171875 -0.390625 0.65625q0 0.40625 0.28125 1.125l4.34375 11.546875l3.921875 -10.15625q0.46875 -1.296875 0.46875 -1.96875q0 -0.734375 -0.515625 -1.0625q-0.515625 -0.34375 -1.5625 -0.375l0 -0.46875q1.359375 0.0625 2.75 0.0625zm20.092438 13.84375q0 1.375 0.171875 3.078125q-1.640625 -0.078125 -5.5 -0.078125q-4.609375 0 -6.953125 0.078125l0 -0.484375q0.859375 -0.046875 1.25 -0.1875q0.390625 -0.140625 0.53125 -0.546875q0.15625 -0.40625 0.15625 -1.328125l0 -11.90625q0 -0.90625 -0.15625 -1.3125q-0.140625 -0.40625 -0.53125 -0.546875q-0.390625 -0.15625 -1.25 -0.203125l0 -0.46875q2.34375 0.0625 6.953125 0.0625q3.53125 0 5.015625 -0.0625q-0.171875 1.578125 -0.171875 2.828125q0 0.9375 0.078125 1.484375l-0.546875 0q-0.171875 -1.5625 -0.4375 -2.3125q-0.265625 -0.765625 -0.890625 -1.109375q-0.625 -0.34375 -1.890625 -0.34375l-2.0 0q-0.859375 0 -1.265625 0.140625q-0.390625 0.125 -0.53125 0.53125q-0.140625 0.40625 -0.140625 1.3125l0 5.671875l1.578125 0q0.84375 0 1.296875 -0.390625q0.453125 -0.40625 0.609375 -0.9375q0.15625 -0.546875 0.25 -1.359375l0.078125 -0.484375l0.546875 0q-0.0625 1.015625 -0.0625 2.25l0 1.15625q0 1.234375 0.140625 3.40625l-0.546875 0q-0.03125 -0.15625 -0.15625 -1.15625q-0.109375 -1.0 -0.65625 -1.5q-0.53125 -0.5 -1.5 -0.5l-1.578125 0l0 5.75q0 0.921875 0.140625 1.328125q0.140625 0.40625 0.53125 0.546875q0.40625 0.125 1.265625 0.125l1.75 0q1.5 0 2.265625 -0.390625q0.78125 -0.40625 1.140625 -1.28125q0.359375 -0.875 0.53125 -2.578125l0.5625 0q-0.078125 0.640625 -0.078125 1.71875zm13.435699 -14.171875q1.0625 0 1.671875 0.234375q0.609375 0.21875 1.265625 0.640625q0.515625 0.34375 0.8125 0.34375q0.21875 0 0.328125 -0.25q0.125 -0.25 0.203125 -0.8125l0.546875 0q-0.125 1.390625 -0.125 4.90625l-0.546875 0q-0.140625 -1.953125 -1.125 -3.28125q-0.96875 -1.328125 -2.8125 -1.328125q-1.296875 0 -2.109375 0.78125q-0.8125 0.78125 -0.8125 2.0q0 0.90625 0.40625 1.578125q0.421875 0.671875 1.0625 1.15625q0.65625 0.484375 1.859375 1.21875l0.703125 0.4375q1.5 0.9375 2.375 1.65625q0.890625 0.703125 1.40625 1.609375q0.53125 0.90625 0.53125 2.140625q0 2.171875 -1.4375 3.375q-1.4375 1.1875 -3.640625 1.1875q-1.15625 0 -1.890625 -0.25q-0.734375 -0.234375 -1.40625 -0.640625q-0.53125 -0.34375 -0.8125 -0.34375q-0.21875 0 -0.34375 0.25q-0.109375 0.25 -0.1875 0.8125l-0.546875 0q0.09375 -1.328125 0.09375 -5.765625l0.546875 0q0.171875 2.421875 1.203125 3.9375q1.03125 1.515625 3.171875 1.515625q1.296875 0 2.203125 -0.796875q0.90625 -0.8125 0.90625 -2.40625q0 -1.34375 -0.90625 -2.265625q-0.890625 -0.9375 -2.828125 -2.125q-1.421875 -0.859375 -2.296875 -1.53125q-0.875 -0.671875 -1.4375 -1.609375q-0.546875 -0.953125 -0.546875 -2.234375q0 -2.015625 1.296875 -3.078125q1.296875 -1.0625 3.21875 -1.0625zm26.422424 0.265625q-0.15625 1.703125 -0.15625 3.0625q0 1.203125 0.0625 1.96875l-0.546875 0q-0.1875 -1.84375 -0.484375 -2.734375q-0.28125 -0.90625 -1.0 -1.328125q-0.71875 -0.421875 -2.21875 -0.421875l-1.296875 0l0 13.65625q0 1.0 0.1875 1.46875q0.203125 0.453125 0.671875 0.625q0.484375 0.15625 1.5625 0.203125l0 0.484375q-1.234375 -0.078125 -3.515625 -0.078125q-2.40625 0 -3.5625 0.078125l0 -0.484375q1.078125 -0.046875 1.5625 -0.203125q0.484375 -0.171875 0.671875 -0.625q0.203125 -0.46875 0.203125 -1.46875l0 -13.65625l-1.296875 0q-1.5 0 -2.21875 0.421875q-0.71875 0.421875 -1.015625 1.328125q-0.28125 0.890625 -0.46875 2.734375l-0.546875 0q0.0625 -0.765625 0.0625 -1.96875q0 -1.359375 -0.15625 -3.0625q1.984375 0.0625 6.765625 0.0625q4.75 0 6.734375 -0.0625zm13.22583 0.46875q-0.859375 0.046875 -1.265625 0.203125q-0.390625 0.140625 -0.53125 0.546875q-0.140625 0.40625 -0.140625 1.3125l0 11.90625q0 0.921875 0.140625 1.328125q0.140625 0.40625 0.53125 0.546875q0.40625 0.140625 1.265625 0.1875l0 0.484375q-1.09375 -0.078125 -3.046875 -0.078125q-2.0625 0 -3.0625 0.078125l0 -0.484375q0.859375 -0.046875 1.25 -0.1875q0.390625 -0.140625 0.53125 -0.546875q0.15625 -0.40625 0.15625 -1.328125l0 -11.90625q0 -0.90625 -0.15625 -1.3125q-0.140625 -0.40625 -0.53125 -0.546875q-0.390625 -0.15625 -1.25 -0.203125l0 -0.46875q1.0 0.0625 3.0625 0.0625q1.921875 0 3.046875 -0.0625l0 0.46875zm23.065063 0q-0.84375 0.046875 -1.25 0.25q-0.40625 0.203125 -0.546875 0.671875q-0.140625 0.46875 -0.140625 1.390625l0 14.328125l-0.5625 0l-10.078125 -15.578125l0 12.671875q0 0.9375 0.15625 1.390625q0.15625 0.453125 0.609375 0.65625q0.46875 0.203125 1.421875 0.25l0 0.484375q-0.859375 -0.078125 -2.453125 -0.078125q-1.4375 0 -2.21875 0.078125l0 -0.484375q0.828125 -0.046875 1.234375 -0.25q0.40625 -0.203125 0.546875 -0.671875q0.15625 -0.46875 0.15625 -1.375l0 -11.671875q0 -0.90625 -0.15625 -1.3125q-0.140625 -0.40625 -0.53125 -0.546875q-0.390625 -0.15625 -1.25 -0.203125l0 -0.46875q0.78125 0.0625 2.21875 0.0625q1.078125 0 1.875 -0.0625l8.46875 13.046875l0 -10.265625q0 -0.9375 -0.15625 -1.390625q-0.15625 -0.46875 -0.609375 -0.671875q-0.453125 -0.203125 -1.40625 -0.25l0 -0.46875q0.859375 0.0625 2.4375 0.0625q1.4375 0 2.234375 -0.0625l0 0.46875zm15.873047 -0.8125q1.40625 0 2.3125 0.40625q0.921875 0.390625 2.0 1.15625q0.3125 0.234375 0.484375 0.234375q0.453125 0 0.59375 -1.453125l0.546875 0q-0.09375 1.546875 -0.09375 5.515625l-0.546875 0q-0.21875 -1.28125 -0.46875 -2.109375q-0.234375 -0.828125 -0.734375 -1.453125q-0.6875 -0.859375 -1.8125 -1.359375q-1.109375 -0.5 -2.34375 -0.5q-1.578125 0 -2.78125 1.03125q-1.203125 1.03125 -1.84375 2.9375q-0.640625 1.90625 -0.640625 4.453125q0 4.3125 1.375 6.328125q1.375 2.0 4.328125 2.0q1.4375 0 2.5 -0.75q0.4375 -0.28125 0.5625 -0.5625q0.125 -0.28125 0.125 -0.75l0 -2.3125q0 -1.0 -0.1875 -1.453125q-0.1875 -0.46875 -0.671875 -0.625q-0.484375 -0.171875 -1.5625 -0.21875l0 -0.484375q1.25 0.078125 3.390625 0.078125q1.625 0 2.5 -0.078125l0 0.484375q-0.5625 0.046875 -0.8125 0.1875q-0.25 0.140625 -0.34375 0.5625q-0.078125 0.40625 -0.078125 1.3125l0 4.75l-0.46875 0q-0.03125 -0.484375 -0.203125 -0.921875q-0.171875 -0.453125 -0.453125 -0.453125q-0.140625 0 -0.296875 0.078125q-0.140625 0.078125 -0.5 0.34375q-0.828125 0.640625 -1.734375 0.96875q-0.90625 0.328125 -2.0 0.328125q-2.46875 0 -4.234375 -1.015625q-1.765625 -1.03125 -2.703125 -2.953125q-0.9375 -1.921875 -0.9375 -4.578125q0 -2.734375 0.984375 -4.8125q1.0 -2.078125 2.75 -3.1875q1.765625 -1.125 4.0 -1.125z" fill-rule="nonzero"/></g></svg>